<?xml version="1.0" encoding="utf-8"?>
<!-- Generator: Adobe Illustrator 21.0.0, SVG Export Plug-In . SVG Version: 6.00 Build 0)  -->
<svg version="1.1" id="Calque_1" xmlns="http://www.w3.org/2000/svg" xmlns:xlink="http://www.w3.org/1999/xlink" x="0px" y="0px"
	 viewBox="0 0 628 902" style="enable-background:new 0 0 628 902;" xml:space="preserve">
<style type="text/css">
	.st0{fill:#FF8500;}
	.st1{fill:#FFFFFF;}
</style>
<path class="st0" d="M162,326.9L162,326.9c0-5.2,4.2-9.4,9.4-9.4h422V189.9H57.1c-14.7,0-26.6,11.9-26.6,26.6v218.2
	c0,14.7,11.9,26.6,26.6,26.6h397.7c5.2,0,9.4,4.2,9.4,9.4c0,5.2-4.2,9.4-9.4,9.4H30.5v126.7h224.3v18.4H30.5v127.6h562.9V625.3
	H369.1v-18.4h197.7c14.7,0,26.6-11.9,26.6-26.6V362.9c0-14.7-11.9-26.6-26.6-26.6H171.4C166.2,336.3,162,332.1,162,326.9"/>
<g>
	<g>
		<path class="st1" d="M58.6,833c-0.1-1.2-0.3-4.2-5.2-4.2c-3.5,0-4.7,2.2-4.7,3.7c0,3,4.1,4.7,8.4,6c9.4,2.6,19.3,5.4,19.3,17.4
			c0,11.6-10.3,18.8-22.5,18.8c-8.4,0-21-3.8-22.5-18.3h16.4c0.7,5.1,5.6,5.1,6.3,5.1c2.8,0,5.8-1.6,5.8-4.3c0-4.3-4.1-4.8-14.6-8.9
			c-7.2-2.3-13.2-7-13.2-14.4c0-11,10-18.2,21.4-18.2c7.3,0,19.8,2.9,21.2,17.4H58.6z"/>
		<path class="st1" d="M118.3,815.7c20.1,0,29.7,15.8,29.7,29.4c0,13.6-9.6,29.4-29.7,29.4c-20.1,0-29.7-15.8-29.7-29.4
			C88.5,831.5,98.2,815.7,118.3,815.7 M118.3,859c7.2,0,13.2-5.9,13.2-13.9s-6.1-14-13.2-14c-7.1,0-13.2,5.9-13.2,14
			S111.1,859,118.3,859"/>
		<path class="st1" d="M163.8,817.5h15.4v5.9h0.2c1.7-2.7,5.2-7.8,15-7.8c5.3,0,11.2,2.2,14.1,4.8c3,2.6,6.4,7,6.4,17.8v34.6h-16.5
			v-30.2c0-3.9,0-11.5-8.7-11.5c-9.5,0-9.5,8.2-9.5,11.6v30.1h-16.5V817.5z"/>
		<path class="st1" d="M291,872.8h-16.5v-6h-0.2c-2.8,5.4-9.7,7.9-16.1,7.9c-17.5,0-27.8-13.7-27.8-29.6c0-18.1,13-29.5,27.8-29.5
			c9.1,0,14.1,4.4,16.1,7.8h0.2v-5.9H291V872.8z M260.7,859.3c10.3,0,13.8-8.8,13.8-14.2c0-6.7-4.6-14.1-13.9-14.1
			c-9.5,0-13.6,8-13.6,14.2C246.9,850.5,250.7,859.3,260.7,859.3"/>
		<polygon class="st1" points="329.7,817.5 337.7,817.5 337.7,830.1 329.7,830.1 329.7,872.8 313.2,872.8 313.2,830.1 305,830.1 
			305,817.5 313.2,817.5 313.2,799.1 329.7,799.1 		"/>
		<path class="st1" d="M351.1,817.5h15.5v5.9h0.2c1.4-2.7,4.3-7.8,13.8-7.8v16.6c-7.7,0.2-13,1.8-13,10.2v30.4h-16.5V817.5z"/>
		<path class="st1" d="M451.7,872.8h-16.5v-6H435c-2.8,5.4-9.6,7.9-16.1,7.9c-17.5,0-27.8-13.7-27.8-29.6c0-18.1,13-29.5,27.8-29.5
			c9,0,14.1,4.4,16.1,7.8h0.2v-5.9h16.5V872.8z M421.3,859.3c10.3,0,13.8-8.8,13.8-14.2c0-6.7-4.6-14.1-13.9-14.1
			c-9.4,0-13.6,8-13.6,14.2C407.6,850.5,411.4,859.3,421.3,859.3"/>
		<path class="st1" d="M525.9,851.8c-3,12.6-14,22.8-28.9,22.8c-16.7,0-29.6-13.2-29.6-29.6c0-16.2,12.6-29.4,29.1-29.4
			c14.6,0,26.5,9.7,29.3,23.2h-16.7c-1.8-3.8-5.1-7.8-12-7.8c-7.9-0.4-13.1,6.1-13.1,14.1c0,8.1,5.3,14,13.1,14c6.9,0,10.2-4,12-7.4
			H525.9z"/>
		<path class="st1" d="M541.3,799.1h16.5v23.5h0.2c2.8-5,8.3-7,14.2-7c5.3,0,11.5,1.9,15,6.1c4.7,5.5,5.2,10.4,5.2,20.2v30.9h-16.5
			v-30.1c0-2.7,0-11.6-8.9-11.6c-9.3,0-9.3,8.3-9.3,11v30.7h-16.5V799.1z"/>
	</g>
	<g>
		<path class="st1" d="M97.7,60.1c8-5.6,23.3-8.1,34.2-8.1c4.8,0,8.6-3.9,8.6-8.6c0-4.8-3.9-8.6-8.6-8.6c-12.9,0-32.3,2.9-44.1,11.2
			C69.5,58.7,66.4,71.4,66.1,72.7c-0.9,4.5,1.9,9,6.3,10.1c11.9,3,28.9,8.8,38.7,14.6c3.7,2.5,8.9,6.8,9.9,12.3c0,0.1,0,0.3,0.1,0.4
			c0.1,0.4,0.1,0.8,0.1,1.2c0,0.8-0.2,1.4-0.4,1.6c-0.2,0.2-0.7,0.3-1,0.3c-7.2,0.1-34.5,0.1-49.1,0l-9.2,0
			c-7.1,0-10.7-3.3-10.7-9.8v-3c0-4.8-3.9-8.6-8.6-8.6c-4.8,0-8.6,3.9-8.6,8.6v3c0,18.7,14.1,27.1,28,27.1l9.1,0
			c8.4,0,20.8,0,31.3,0c8,0,14.9,0,18.1-0.1c5.2-0.1,9.9-2.1,13.3-5.8c3.6-3.8,5.4-9,5.1-14.7c-0.3-6.1-2.9-12.6-7.1-18
			c-8.1-10.4-30.1-18.5-43.9-22.8C89.7,66.5,93,63.4,97.7,60.1"/>
		<path class="st1" d="M400,60c-4.8,0-8.6,3.9-8.6,8.6v33c0,0.1,0,0.4,0,0.5c0.1,3.1-0.8,5.8-2.5,7.5c-2.9,3-8.5,3.7-12.6,3.7
			c-15.2,0-17.1-9.1-17.3-12.1v-59c0-4.8-3.9-8.6-8.6-8.6c-4.8,0-8.6,3.9-8.6,8.6l0,59.5c0,0.8,0.3,7.7,4.8,14.7
			c4.2,6.5,12.7,14.2,29.7,14.2c10.9,0,19.3-3,25-8.9c5-5.1,7.6-12.3,7.3-20v-33C408.6,63.8,404.7,60,400,60"/>
		<path class="st1" d="M304.5,63.9c-10.3,0-23.4,5.3-38.9,15.6c-6.5,4.3-13,8.8-19,12.9V42.2c0-4.8-3.9-8.6-8.6-8.6
			c-4.8,0-8.6,3.9-8.6,8.6v62.3c-5.6,4-11.9,8.5-11.9,8.5h-14.2V73.2c0-4.8-3.9-8.6-8.6-8.6c-4.8,0-8.6,3.9-8.6,8.6v45.7
			c0,0.2-1.9,15.6-21.3,20.4c-4.6,1.2-7.4,5.8-6.3,10.5c1,3.9,4.5,6.5,8.4,6.5c0.7,0,1.4-0.1,2.1-0.3c17.9-4.5,27.5-16,31.7-25.8
			h93.2c22.1,0,33.7-19,33.7-37.9C327.6,66.6,311.4,63.9,304.5,63.9 M293.9,113h-46.6c8.1-5.7,18-12.5,27.9-19.2
			c16.6-11.1,25.5-12.7,29.3-12.7c2.3,0,5.8,0,5.8,11.3C310.3,93.2,310.1,113,293.9,113"/>
		<path class="st1" d="M165.1,121.8V42.2c0-4.8-3.9-8.6-8.6-8.6c-4.8,0-8.6,3.9-8.6,8.6v79.6c0,4.8,3.9,8.6,8.6,8.6
			C161.2,130.4,165.1,126.5,165.1,121.8"/>
		<path class="st1" d="M581.7,59.9c-4.8,0-8.6,3.9-8.6,8.6v38.7c0,4.3,0,5.7-9.3,5.7c-9.3,0-9.3-1.4-9.3-5.7V68.6
			c0-4.8-3.9-8.6-8.6-8.6c-4.8,0-8.6,3.9-8.6,8.6v38.7c0,4.3,0,5.7-9.3,5.7c-9.3,0-9.3-1.4-9.3-5.7V68.6c0-4.8-3.9-8.6-8.6-8.6
			c-4.8,0-8.6,3.9-8.6,8.6v38.7c0,4.3,0,5.7-9.3,5.7c-9.3,0-9.3-1.4-9.3-5.7v-9.4c0-0.3-0.1-4.9-0.1-4.9c0-17-13.8-30.8-30.8-30.8
			c-17,0-30.8,13.8-30.8,30.8c0,17,13.8,30.8,30.8,30.8c4.7,0,9.1-1.1,13.1-3c-1.1,4.4-5.3,13.5-21.2,18c-4.6,1.3-7.2,6.1-5.9,10.7
			c1.1,3.8,4.5,6.3,8.3,6.3c0.8,0,1.6-0.1,2.4-0.3c19.3-5.5,28.4-16.9,32.1-26.6c3.3,0.9,7.1,1.4,11.5,1.4c7.6,0,13.6-1.4,18-4.3
			c4.4,2.9,10.3,4.3,18,4.3s13.6-1.4,18-4.3c4.4,2.9,10.3,4.3,18,4.3c17.6,0,26.6-7.7,26.6-23V68.6
			C590.4,63.8,586.5,59.9,581.7,59.9 M451.8,106.6c-7.4,0-13.5-6.1-13.5-13.5c0-7.4,6.1-13.5,13.5-13.5c7.4,0,13.5,6.1,13.5,13.5
			C465.3,100.5,459.2,106.6,451.8,106.6"/>
		<path class="st1" d="M399.9,32.8c-5.2,0-9.3,4.2-9.3,9.3c0,5.2,4.2,9.3,9.3,9.3c5.2,0,9.3-4.2,9.3-9.3
			C409.2,37,405.1,32.8,399.9,32.8"/>
	</g>
</g>
</svg>
